<svg width="506" height="368" xmlns="http://www.w3.org/2000/svg">
 <g>
  <title>background</title>
  <rect fill="none" id="canvas_background" height="370" width="508" y="-1" x="-1"/>
 </g>

 <g>
  <title>Layer 1</title>
  <path id="svg_9" d="m426,103.380707" opacity="0.5" stroke-opacity="null" stroke-width="0" stroke="null" fill="#ff0059"/>
  <rect stroke="null" transform="rotate(-1.448447823524475 207.52049255371563,208.1409759521489) matrix(1.297729140757341,-1.314555297838038,1.314555297838038,1.297729140757341,-332.01919730944655,376.532956861191) " id="svg_20" height="14" width="180.5698" y="136.817424" x="179.789747" stroke-opacity="null" stroke-width="0" fill="#ff0059"/>
  <g id="svg_1">
   <path transform="rotate(-0.26172494888305664 268.30276489258915,204.8231506347649) " fill="#ff0059" d="m256.96045,276.595487l-12.78072,-11.90854c22.3379,-0.78912 43.818,-9.19939 59.69605,-26.24035c31.18903,-33.47333 29.32007,-86.37889 -4.15326,-117.56792c-3.65163,-3.40244 -8.35435,-3.23631 -11.75679,0.41533s-3.23631,8.35435 0.41533,11.75679c26.77866,24.95122 28.27383,67.27567 3.32261,94.05433c-14.74391,15.82375 -35.65694,23.62542 -56.37669,20.23736l19.84757,-21.30121c3.40244,-3.65163 3.23631,-8.35435 -0.41533,-11.75679s-8.35435,-3.23631 -11.75679,0.41533l-30.05488,32.25611c-3.40244,3.65163 -3.23631,8.35435 0.41532,11.75679l32.25611,30.05488c3.65164,3.40244 8.35435,3.23631 11.75679,-0.41532s3.23631,-8.35435 -0.41532,-11.75679z" id="svg_21" stroke="null" stroke-width="0"/>
   <path transform="rotate(-0.26172494888305664 206.46713256836142,147.93725585937267) " fill="#ff0059" d="m186.38883,219.709597c-26.77865,-24.95122 -28.27383,-67.27567 -3.3226,-94.05433c14.7439,-15.82375 35.65693,-23.62542 56.37668,-20.23736l-19.84756,21.30121c-3.40244,3.65163 -3.23631,8.35435 0.41532,11.75679s8.35435,3.23631 11.75679,-0.41533l30.05489,-32.25611c3.40244,-3.65163 3.23631,-8.35435 -0.41533,-11.75679l-32.25611,-30.05488c-3.65164,-3.40244 -8.35435,-3.23631 -11.75679,0.41532s-3.23631,8.35435 0.41532,11.75679l12.78073,11.90854c-22.94651,0.22205 -43.81801,9.19939 -59.69606,26.24035c-31.18903,33.47333 -29.32006,86.37889 4.15326,117.56792c3.65163,3.40244 8.35435,3.23631 11.75679,-0.41533s3.23631,-8.35435 -0.41533,-11.75679z" id="svg_22" stroke="null" stroke-width="0"/>
  </g>
  <g id="svg_4" stroke="null">
   <title transform="translate(6,2) translate(0,-67.11929321289062) translate(-10,0) ">Layer 1</title>
   <path id="svg_1" fill="#ff0059" d="m372.26521,127.056687l4.00795,0c60.20133,0 109.00463,48.8033 109.00463,109.00463c0,60.20168 -48.8033,109.00463 -109.00463,109.00463l-282.12963,0c-38.95379,0 -70.5324,-31.57868 -70.5324,-70.53241c0,-38.57105 30.96107,-69.91103 69.38644,-70.52317c-2.36612,-10.53831 -3.61125,-21.49007 -3.61125,-32.71062c0,-80.68155 64.41344,-146.83565 144.78755,-146.83565c65.03652,0 119.64622,43.36179 138.09134,102.59259zm-9.31609,25.64815c-6.34125,0 -11.65828,-4.6577 -13.16776,-10.81668c-12.92085,-52.71788 -59.78002,-91.77591 -115.60749,-91.77591c-65.79878,0 -119.13941,54.25746 -119.13941,121.1875c0,13.50221 2.17052,26.48838 6.17642,38.61756c3.04666,9.22478 -3.28775,19.73197 -13.00293,19.73197l-14.06442,0c-24.78876,0 -44.88425,20.0955 -44.88425,44.88426c0,24.78877 20.09549,44.88426 44.88425,44.88426l282.12963,0c46.03672,0 83.35648,-37.3201 83.35648,-83.35648c0,-46.03637 -37.31976,-83.35648 -83.35648,-83.35648l-13.32404,0z" clip-rule="evenodd" fill-rule="evenodd" stroke="null"/>
  </g>
 </g>
</svg>